# xmcd CD database file
#
# Track frame offsets:
#	150
#	13200
#	29070
#	43000
#	59062
#	75272
#	88540
#	100842
#	115695
#	130005
#	141462
#	152585
#	167130
#	178935
#	190770
#	203642
#	213927
#	225775
#	239692
#	250845
#	263690
#	277090
#	288950
#	301162
#	314890
#	329812
#
# Disc length: 4581 seconds
#
# Revision: 0
# Processed by: cddbd v1.5.2PL0 Copyright (c) Steve Scherf et al.
# Submitted via: CDex 1.70beta2
#
DISCID=7b11e31a
DTITLE=Jimmy McCracklin - Jumpin' Bay Area 1948-1955
DYEAR=1955
DGENRE=Blues
TTITLE0=Blues Blasters Boogie
TTITLE1=Darlin' Share Your Love
TTITLE2=Give My Heart A Break
TTITLE3=The Panic's On
TTITLE4=Couldn't Be A Dream
TTITLE5=Please Forgive Me Baby
TTITLE6=Jumpin' In The Heart Of Town
TTITLE7=Standin' In The Back Door Cryin'
TTITLE8=Tired Of Everybody
TTITLE9=What You Did To Me
TTITLE10=People Are Wonderin'
TTITLE11=I've Got The Feelin'
TTITLE12=Gonna Tell Your Mother
TTITLE13=My Mother Says
TTITLE14=That Ain't Right
TTITLE15=I Got Eyes For You
TTITLE16=Rockin' All Day (Reelin' And Rockin')
TTITLE17=Bad Health Blues
TTITLE18=Gotta Cut Out
TTITLE19=Just Won't Let Her Go
TTITLE20=Beer Drinkin' Woman
TTITLE21=Love When It Rains
TTITLE22=I'll Get A Break
TTITLE23=Cryin' Blues
TTITLE24=Bay Condition Blues
TTITLE25=Blues Blaster's Shuffle
EXTD=YEAR: 1955
EXTT0=
EXTT1=
EXTT2=
EXTT3=
EXTT4=
EXTT5=
EXTT6=
EXTT7=
EXTT8=
EXTT9=
EXTT10=
EXTT11=
EXTT12=
EXTT13=
EXTT14=
EXTT15=
EXTT16=
EXTT17=
EXTT18=
EXTT19=
EXTT20=
EXTT21=
EXTT22=
EXTT23=
EXTT24=
EXTT25=
PLAYORDER=
